<svg width="32" height="32" viewBox="0 0 32 32" fill="none" xmlns="http://www.w3.org/2000/svg">
<path d="M0 16C0 24.8366 7.16344 32 16 32C24.8366 32 32 24.8366 32 16C32 7.16344 24.8366 0 16 0C7.16344 0 0 7.16344 0 16Z" fill="#C8C8C8"/>
<path d="M19.8594 17.5925C20.0625 17.6981 20.1925 17.755 20.2331 17.8363C20.2819 17.9256 20.2656 18.3319 20.0625 18.795C19.9 19.25 19.055 19.6887 18.6813 19.705C18.3075 19.7212 18.2994 19.9975 16.2762 19.1119C14.2531 18.2262 13.0344 16.065 12.9369 15.9269C12.8394 15.7887 12.1569 14.8056 12.1894 13.8063C12.23 12.815 12.75 12.3438 12.9613 12.1488C13.1562 11.9375 13.3756 11.9131 13.5137 11.9375H13.8956C14.0175 11.9375 14.1881 11.8888 14.3425 12.3031L14.9031 13.8225C14.9519 13.9281 14.9844 14.05 14.9113 14.18L14.6919 14.5131L14.375 14.8544C14.2775 14.9519 14.1638 15.0575 14.2775 15.2606C14.375 15.4719 14.7812 16.1462 15.35 16.7069C16.0894 17.4219 16.7394 17.6575 16.9344 17.7631C17.1294 17.8769 17.2512 17.8606 17.3731 17.7306L18.0312 16.9669C18.1856 16.7638 18.3156 16.8125 18.5025 16.8775L19.8594 17.5925ZM16 7.875C17.067 7.875 18.1235 8.08516 19.1093 8.49348C20.0951 8.9018 20.9908 9.50028 21.7452 10.2548C22.4997 11.0092 23.0982 11.9049 23.5065 12.8907C23.9148 13.8765 24.125 14.933 24.125 16C24.125 18.1549 23.269 20.2215 21.7452 21.7452C20.2215 23.269 18.1549 24.125 16 24.125C14.3994 24.125 12.9125 23.6619 11.6531 22.8656L7.875 24.125L9.13437 20.3469C8.33812 19.0875 7.875 17.6006 7.875 16C7.875 13.8451 8.73102 11.7785 10.2548 10.2548C11.7785 8.73102 13.8451 7.875 16 7.875ZM16 9.5C14.2761 9.5 12.6228 10.1848 11.4038 11.4038C10.1848 12.6228 9.5 14.2761 9.5 16C9.5 17.3975 9.93875 18.6894 10.6862 19.7456L9.90625 22.0938L12.2544 21.3138C13.3106 22.0613 14.6025 22.5 16 22.5C17.7239 22.5 19.3772 21.8152 20.5962 20.5962C21.8152 19.3772 22.5 17.7239 22.5 16C22.5 14.2761 21.8152 12.6228 20.5962 11.4038C19.3772 10.1848 17.7239 9.5 16 9.5Z" fill="white"/>
</svg>
